<svg width="3591" height="741" viewBox="0 0 3591 741" fill="none" xmlns="http://www.w3.org/2000/svg">
<path d="M1116.89 216.55C1209.62 216.55 1284.78 291.525 1284.78 384.01C1284.78 475.093 1210.76 548.93 1119.43 548.93H974.92V293.322L1057.46 361.502V469.194H1131.8C1170.71 469.194 1202.24 437.739 1202.24 398.935V373.022C1202.24 334.218 1170.71 302.764 1131.8 302.764H1078.65L975.44 216.55H1116.89Z" fill="white" stroke="white" stroke-width="0.592476"/>
<path d="M1502.37 210.625H1512.75C1605.75 210.625 1681.15 286.713 1681.15 379.777C1681.15 472.842 1605.75 548.929 1512.75 548.93H1502.37C1409.36 548.93 1333.96 472.842 1333.96 379.777C1333.96 286.713 1409.36 210.625 1502.37 210.625ZM1506.26 285.343C1453.78 285.343 1411.23 327.915 1411.23 380.427C1411.23 432.938 1453.78 475.51 1506.26 475.51C1558.74 475.51 1601.29 432.939 1601.29 380.427C1601.29 327.915 1558.74 285.343 1506.26 285.343Z" fill="white" stroke="white" stroke-width="0.592476"/>
<path d="M1889.59 217.735H2034.27V301.385H1901.24C1858.19 301.385 1823.29 336.333 1823.29 379.444V387.22C1823.29 430.332 1858.19 465.279 1901.24 465.279H2034.27V548.929H1889.59C1811.12 548.929 1747.51 485.235 1747.51 406.662V360.003C1747.51 281.43 1811.12 217.735 1889.59 217.735Z" fill="white" stroke="white" stroke-width="0.592476"/>
<path d="M2441.7 546.559H2350.45L2266.39 388.514L2266.13 388.03L2265.86 388.511L2179.21 546.559H2078.91L2266.11 203.851L2441.7 546.559Z" fill="white" stroke="white" stroke-width="0.592476"/>
<path d="M2732.21 217.735V298.756H2621V543.597H2537.53V298.756H2435.37V217.735H2732.21Z" fill="white" stroke="white" stroke-width="0.592476"/>
<path d="M2860.68 214.18V409.456C2860.68 443.955 2888.67 471.921 2923.2 471.921H2940.06C2974.59 471.921 3002.58 443.955 3002.58 409.456V214.18H3082.36V397.8C3082.36 480.61 3013.87 547.744 2930.98 547.744C2848.09 547.744 2779.6 480.61 2779.6 397.8V214.18H2860.68Z" fill="white" stroke="white" stroke-width="0.592476"/>
<path d="M3234.53 218.327H3305.79C3357.05 218.327 3398.62 259.846 3398.78 311.122H3329.41C3329.25 283.875 3307.13 261.835 3279.87 261.835H3256.55C3236.35 261.835 3219.98 278.228 3219.98 298.448V312.716C3219.98 335.803 3238.67 354.517 3261.74 354.517H3315.2C3364.94 354.517 3405.26 394.88 3405.26 444.671C3405.26 504.869 3356.51 553.669 3296.37 553.669H3253.94C3196.24 553.669 3149.47 506.926 3149.31 449.201H3213.5C3213.66 479.314 3238.09 503.677 3268.21 503.677H3296.89C3320.57 503.677 3339.77 484.457 3339.77 460.747C3339.77 433.271 3317.52 410.994 3290.07 410.994H3252.67C3195.58 410.994 3149.31 364.67 3149.31 307.527V303.636C3149.31 256.522 3187.46 218.327 3234.53 218.327Z" fill="white" stroke="white" stroke-width="0.592476"/>
<path fill-rule="evenodd" clip-rule="evenodd" d="M214.476 398.122V373.232C214.476 230.615 330.091 115 472.709 115V164.78C354.147 164.78 258.034 260.893 258.034 379.455V398.122H214.476ZM489.978 210.685L513.677 244.16V393.37L620.384 286.663L620.384 320.179L620.384 353.694L513.677 460.401V502.992L663.714 352.955V386.471V419.986L513.677 570.023V596.091H532.529L689.536 439.085L689.833 439.382L690.129 439.085L762.077 511.032L728.562 511.032L692.588 511.032L684.619 511.032L551.477 644.175L550.791 643.489H430.138V643.393L429.921 643.61L297.344 511.032L290.397 511.033L254.424 511.033L220.908 511.033L292.856 439.085L326.371 472.601L326.235 472.892L449.434 596.091H466.279V569.766L316.499 419.987V386.471L316.499 352.955L466.279 502.735V456.307L363.667 353.695V320.179V286.663L466.279 389.276V244.16L489.978 210.685ZM768.276 373.232V398.122H724.719V379.455C724.719 260.893 628.605 164.78 510.044 164.78V115C652.661 115 768.276 230.615 768.276 373.232Z" fill="white"/>
</svg>
